<svg xmlns="http://www.w3.org/2000/svg" viewBox="0 0 250 250"><defs><style>.cls-1{fill:#c2c1c3;}.cls-2{fill:#224194;}.cls-3,.cls-4{fill:#fff;}.cls-4{opacity:0.16;}</style></defs><g id="Layer_2" data-name="Layer 2"><g id="Artwork"><rect class="cls-1" width="250" height="250" rx="44.55"/><rect class="cls-2" x="10.8" y="10.8" width="228.39" height="228.39" rx="40.7"/><path class="cls-3" d="M175.7,76.83l-27.59,53.76H175l5.43-12.94H197l.09,12.94h24.1l-3.25-75.44H181.59L169.42,76.83Zm20.5,3,.21,20.52h-9Z"/><path class="cls-3" d="M65.6,130.59c16.2,0,28.16-11.56,28.16-23.91,0-5.12-.69-12.35-8.74-15.3C92.84,87.45,100,79.83,100,71.23c0-9.33-7.24-15.79-19.19-15.85-9.72-.07-31.8,0-31.8,0L37.3,77.93,43,78,29.3,130.59Zm.11-55.42,6.91,0c2,0,6.06.14,4.86,5.32-1.09,4.76-5.46,5.38-7.93,5.38H63.14Zm-6,24h8.54c3.24,0,5.85,2.7,4.78,6.73s-5,5.63-8.28,5.63H56.51Z"/><path class="cls-3" d="M131.35,133.27a53.86,53.86,0,0,0,12.27-1.85l12-24.66c-3.49,2.68-10.78,6.47-18,6.31-12.63-.28-17.36-8.18-17.29-15.12.1-9.82,8.15-20,21.49-20.23,6.78-.12,12.62,3,17,6.48l11.83-21.09-16.1-8.57-2.13,2.8a16,16,0,0,0-6.77-1.44c-31.28,0-49.54,25.58-49.56,46.63C96.05,118.45,105.78,134,131.35,133.27Z"/><path class="cls-3" d="M73.17,161.8q-6.81,0-12.38,6.59a7.68,7.68,0,0,0-2.34-4.84,7.06,7.06,0,0,0-5-1.75c-4.44,0-8.34,2-11.73,6l1-5.31H37.54c-.46,2.35-1.18,5.33-2.14,8.94l-6.32,23.58H34.9l5.2-19.42A12.22,12.22,0,0,1,44,169.53a9.09,9.09,0,0,1,6-2.62,4.19,4.19,0,0,1,4.19,2.4q1.11,2.4,0,6.53L49,195.06h5.82l5.34-20A11.1,11.1,0,0,1,64,169.21a9,9,0,0,1,5.68-2.3q3.3,0,4.38,2.59t-.22,7.42L69,195.06h5.82l5.06-18.88q1.89-7.05-.1-10.72A6.93,6.93,0,0,0,73.17,161.8Z"/><path class="cls-3" d="M106.37,161.8a19.86,19.86,0,0,0-12.76,4.69,23.45,23.45,0,0,0-7.92,12.58q-2,7.43,1.17,12.07t10,4.66a19.49,19.49,0,0,0,8.66-2.12,21.57,21.57,0,0,0,7.44-6.05,24.82,24.82,0,0,0,4.54-9.17q2-7.35-1.1-12T106.37,161.8Zm4.82,16.87a18.66,18.66,0,0,1-5.21,9,11.47,11.47,0,0,1-7.93,3.49,6.12,6.12,0,0,1-5.88-3.48q-1.78-3.47-.35-8.81a19.34,19.34,0,0,1,5-8.89,11.15,11.15,0,0,1,8.07-3.54q4.44,0,6.06,3.58C112,172.4,112.09,175.28,111.19,178.67Z"/><path class="cls-3" d="M145.77,161.8a15.66,15.66,0,0,0-12.56,6l5.53-20.63h-6.08l-10.53,39.31c-1,3.62-1.82,6.47-2.54,8.53h5.18l1.7-5.38q2,6.12,9.29,6.12,6,0,11.53-4.76a24.78,24.78,0,0,0,7.61-12.71q1.95-7.29-.61-11.91C152.57,163.34,149.74,161.8,145.77,161.8Zm3,16.8a18.66,18.66,0,0,1-5,8.92,11.26,11.26,0,0,1-7.94,3.31,6.35,6.35,0,0,1-5.65-2.73,7.38,7.38,0,0,1-.87-6.34l1.42-5.31a13.53,13.53,0,0,1,4.44-6.8,11,11,0,0,1,7.25-2.94q4.35,0,6.05,3.34T148.82,178.6Z"/><polygon class="cls-3" points="157.26 195.06 163.21 195.06 171.92 162.54 165.98 162.54 157.26 195.06"/><path class="cls-3" d="M169.6,149.89a5.3,5.3,0,0,0-1.81,2.78,3.36,3.36,0,0,0,.3,2.82,2.67,2.67,0,0,0,2.41,1.14,4.69,4.69,0,0,0,3.09-1.14,5.46,5.46,0,0,0,1.81-2.82,3.2,3.2,0,0,0-.33-2.78,2.69,2.69,0,0,0-2.4-1.12A4.73,4.73,0,0,0,169.6,149.89Z"/><polygon class="cls-3" points="185.18 147.22 172.36 195.06 178.31 195.06 191.12 147.22 185.18 147.22"/><path class="cls-3" d="M209.16,161.8a17.78,17.78,0,0,0-12.4,5,25.67,25.67,0,0,0-7.46,12.5q-2,7.46,1.08,12t10.31,4.5a29.32,29.32,0,0,0,11.38-2.15l.15-4.37a25.93,25.93,0,0,1-9.47,1.68q-4.73,0-7-2.8c-1.48-1.87-1.79-4.57-.93-8.08h22.45a18.29,18.29,0,0,0,.95-2.83q1.73-6.48-.49-11T209.16,161.8ZM213,175.58H196.13a16.62,16.62,0,0,1,4.72-6.77,10.12,10.12,0,0,1,6.67-2.57c2.54,0,4.26.85,5.18,2.57S213.7,172.78,213,175.58Z"/><path class="cls-4" d="M205.45,0H44.55A44.54,44.54,0,0,0,0,44.55v60.91C34.38,117.77,75.91,125,120.65,125c48.58,0,93.38-8.5,129.35-22.81V44.55A44.54,44.54,0,0,0,205.45,0Z"/></g></g></svg>