<svg xmlns="http://www.w3.org/2000/svg" viewBox="0 0 80.97 81"><defs><style>.cls-1{fill:#d62e2e;}.cls-2{fill:#fff;}</style></defs><g id="Layer_2" data-name="Layer 2"><g id="Artwork"><path class="cls-1" d="M40.67,0h33.5a6.56,6.56,0,0,1,4.06,1.13,6,6,0,0,1,2.69,4.93c0,3.79,0,7.56,0,11.32V74a7.21,7.21,0,0,1-.55,3.32,6.18,6.18,0,0,1-4.83,3.6,12,12,0,0,1-1.7.11L8,81c-.74,0-1.5,0-2.25-.09A6.25,6.25,0,0,1,0,74.16Q0,40.44,0,6.71a6.4,6.4,0,0,1,2-5A5.9,5.9,0,0,1,6,.05C7,0,8,0,9,0H40.67V0Z"/><path class="cls-2" d="M19.72,12.07H13.43c-1.08,0-1.34.24-1.36,1.29v3.41c0,1,.26,1.23,1.22,1.24l7.89.12c1.44,0,2.88,0,4.31,0A8.36,8.36,0,0,1,30.54,20a7.56,7.56,0,0,1,.83,11,8.21,8.21,0,0,1-6.16,2.65c-3.92,0-7.84,0-11.76,0-1.12,0-1.36.26-1.36,1.38v3.4c0,1,.32,1.33,1.36,1.33H24.13A25,25,0,0,0,27,39.53a12.82,12.82,0,0,0,8.77-4.75,13.56,13.56,0,0,0,2-14.35c-2.25-5.49-6.7-8.15-12.58-8.38-1.82-.05-3.65,0-5.48,0m34.94,0A14,14,0,0,1,68.9,25.89a14.25,14.25,0,0,1-28.49,0A14.05,14.05,0,0,1,54.66,12.05Zm0,22.15a8.16,8.16,0,0,0,8-8.31,8,8,0,1,0-16,0,8.17,8.17,0,0,0,8,8.31ZM18.72,52.75a1.49,1.49,0,0,1-.18-1V42.3a1,1,0,0,0-.86-1,2.72,2.72,0,0,0-.63-.08H13.37c-1,0-1.3.32-1.3,1.29V67.59c0,1,.26,1.23,1.22,1.24h3.5c1.52,0,1.73-.17,1.73-1.76V61.48a2.13,2.13,0,0,1,.6-1.64c.65-.66,1.3-1.33,2-2,.52-.48.89-.45,1.36.12s.84,1.08,1.26,1.63L30,67.91a2.13,2.13,0,0,0,1.75.92h5.39c.29,0,.62,0,.8-.46a6.19,6.19,0,0,0-.51-.82l-7.54-9.71-3.07-4A1,1,0,0,1,27,52.2a3.08,3.08,0,0,1,.24-.26l5.5-5.45,4.19-4.16c.23-.24.62-.42.46-.92a2.45,2.45,0,0,0-.41-.12c-1.78,0-3.53-.06-5.31-.06A3.45,3.45,0,0,0,29,42.4c-3.12,3.27-6.3,6.48-9.47,9.7-.23.26-.41.6-.84.65M40.44,49.1v2.61a39.9,39.9,0,0,0,.18,5.36,14.21,14.21,0,0,0,28.2-2.27c.05-4,0-8,0-12v-.54c-.06-.6-.31-.9-.91-.92-1.44,0-2.86,0-4.3,0-.6,0-.85.32-.88.92v.91c0,4-.06,8.08-.13,12.13a8.26,8.26,0,0,1-1.68,4.83A7.8,7.8,0,0,1,50,61.69a8.49,8.49,0,0,1-3.4-7c0-4,0-8,.06-12,0-1.11-.26-1.36-1.37-1.37H41.74c-1.07,0-1.3.26-1.3,1.36V49.1"/></g></g></svg>