<svg xmlns="http://www.w3.org/2000/svg" viewBox="0 0 279 79.65"><defs><style>.cls-1{fill:#1c181a;}.cls-2{fill:#26add9;}</style></defs><g id="Layer_2" data-name="Layer 2"><g id="Artwork"><path class="cls-1" d="M117.17,22.2h.13V19.1h8.46V49.79c0,8.92-7.09,15.1-17.05,15.1A20.4,20.4,0,0,1,91.78,57.4l6.33-5.23a12.2,12.2,0,0,0,10.6,5.17c5,0,8.58-3.15,8.58-7.43V47.64h-.12A13.43,13.43,0,0,1,107,51.45a16.47,16.47,0,1,1-.31-32.94,14.18,14.18,0,0,1,10.5,3.69Zm72.13-4a16.65,16.65,0,0,1,.06,33.3,15.26,15.26,0,0,1-9.9-3.33h-.12V64h-8.81V19.1H179v2.8h.12A14.08,14.08,0,0,1,189.3,18.21ZM250,19.1l9.6,20.58h.12l9.48-20.58H279L257.13,64h-9.72l7.51-15.1-14.6-29.8Zm-102.1-.89c10.31,0,17.82,7.31,17.82,16.65s-7.51,16.65-17.82,16.65a16.69,16.69,0,1,1,0-33.3Zm76.06,0c9.24,0,15,4.7,15,12.37v20H231V47.17h-.12a13.06,13.06,0,0,1-10.67,4.34c-7,0-11.8-3.8-11.8-9.39,0-5.89,3.93-8.93,13.89-10.29,5.78-.78,7.51-1.6,7.51-3.21,0-2.08-2.2-3.33-5.6-3.33a7.45,7.45,0,0,0-7.87,5.65L208,29.21C209.21,22.79,215.82,18.21,224,18.21Zm6.55,16.95h-.12c-.78,1.13-2.44,1.78-6.73,2.56-5.19,1-7,2-7,3.8s1.54,2.74,4.88,2.74c5.07,0,9-2.32,9-5.35Zm-82.61-9.22a8.92,8.92,0,1,0,9,8.92,8.49,8.49,0,0,0-2.51-6.45A8.59,8.59,0,0,0,147.93,25.94Zm40,.06c-4.65,0-8.59,3.27-8.59,6.84v4c0,3.81,3.82,7,8.65,7A8.89,8.89,0,1,0,187.93,26Zm-79.57.24c-5.73,0-9.54,3.45-9.54,8.62A8.34,8.34,0,0,0,108,43.72c5,0,8.94-3.09,8.94-7V33.08C116.94,29.51,112.89,26.24,108.36,26.24Z"/><path class="cls-2" d="M39.92,0A39.83,39.83,0,1,0,79.83,39.82,39.87,39.87,0,0,0,39.92,0ZM62.16,52.17a9.74,9.74,0,0,1-7.73,8.37,113.58,113.58,0,0,1-27.82,0,11.17,11.17,0,0,1-9.09-8.86,78.32,78.32,0,0,1,0-23.58,10.59,10.59,0,0,1,8-8.86,64.9,64.9,0,0,1,22.5,0,7.89,7.89,0,0,1,5.81,7.31H28.08a1.66,1.66,0,1,0,.19,3.32H54.33a9.27,9.27,0,0,1,8.84,8.71A63.74,63.74,0,0,1,62.16,52.17Z"/><path class="cls-2" d="M53.22,39.82a2.51,2.51,0,0,0-2.49,2.49,2.38,2.38,0,0,0,.83,1.84v1.48a1.67,1.67,0,1,0,3.33,0V44.15a2.43,2.43,0,0,0,.82-1.84A2.5,2.5,0,0,0,53.22,39.82Z"/><polygon class="cls-2" points="53.22 39.83 53.22 39.83 53.23 39.83 53.22 39.83"/></g></g></svg>