<svg xmlns="http://www.w3.org/2000/svg" viewBox="0 0 269.45 72"><defs><style>.cls-1,.cls-2{fill:#00aae7;}.cls-1{fill-rule:evenodd;}</style></defs><g id="Layer_2" data-name="Layer 2"><g id="Artwork"><path class="cls-1" d="M55.92,66.86C65,61.64,70.61,52.7,70.61,43c0-21.65-21.86-29.39-21.86-29.39a29.15,29.15,0,0,0-14.46-3.51H32.74A34.91,34.91,0,0,1,52.9,3.56c17.09,0,30,15.67,30,30.34a33.53,33.53,0,0,1-27,33Zm-11-.06c11.25-4,19.86-14.37,19.86-25.48a26,26,0,0,0-7.7-19,22.34,22.34,0,0,1,2.23,10.09c0,12.39-10.74,20.76-22,20.76a23.42,23.42,0,0,1-16.52-6.22A33.35,33.35,0,0,0,44.93,66.8ZM35,68.56a25,25,0,0,0,3.24-.21C23.43,62.76,14,48.94,14,32.28a27.78,27.78,0,0,1,.24-3.6,22.82,22.82,0,0,1,2.16-8.07c-6.2,5.06-8.65,12.58-8.65,20.12,0,15.43,14,27.83,27.28,27.83Zm1.28-54c-9.14,0-16.22,7.63-16.22,16.83,0,11.13,7.82,19,16.57,19,9.76,0,16.75-7.4,16.75-18.45,0-8.17-7.46-17.34-17.1-17.34ZM50,0h0c-9,0-21.8,3.75-29.34,12.87C8.73,17.92,0,29.17,0,41.49,0,60.59,16.84,72,37.13,72a38.75,38.75,0,0,0,9.5-1.46,44.1,44.1,0,0,0,6.8.52c19.15,0,36-15,36-34.6C89.45,16.26,72.81,0,50,0Z"/><path class="cls-1" d="M108.17,48.23c0,4.72-3.11,7.38-9.72,7.58V63c7.51,0,17-3.93,17-14.77V13h-7.3Z"/><path class="cls-1" d="M129.13,27.51c.49-4.38,2.42-8.24,7.24-8.24s6.75,3.86,7.24,8.24Zm22.12.67h0c0-5.58-3.17-15.83-14.88-15.83-11.1,0-14.88,9-14.88,18.29s3.86,18.3,16.6,18.3A22.14,22.14,0,0,0,151,44.68l-3.72-5.58A17.66,17.66,0,0,1,138.09,42c-5.65,0-8.27-3.72-8.89-7.58h15.37C149.11,34.44,151.25,32.71,151.25,28.18Z"/><path class="cls-1" d="M171.11,12.35a17.24,17.24,0,0,0-13.77,7.25V48.54h7.3V21.93a8.86,8.86,0,0,1,6.47-2.66,7,7,0,0,1,7.16,6.92V48.54h7.32V26.19C185.59,19.47,180.69,12.35,171.11,12.35Z"/><rect class="cls-2" x="193.68" y="12.75" width="7.3" height="35.8"/><path class="cls-1" d="M256.22,26.85h.07c-2.5-.66-5.72-1.84-5.72-4.31,0-1.8,1.93-3.27,5.58-3.27a25.5,25.5,0,0,1,9.37,2.33l2.35-6.33a29.78,29.78,0,0,0-11.72-2.92c-6.33,0-12.95,3.12-12.95,10.19,0,6.51,5.92,9.77,11.78,11.17,3.18.66,7.16,1.93,7.16,4.46S258.92,42,255.74,42s-7.37-1.94-10.61-3.6L242.3,45c3.1,1.53,7.66,3.78,13.44,3.92,6.67,0,13.71-3.06,13.71-10.77C269.45,30.7,261.73,28.18,256.22,26.85Z"/><path class="cls-1" d="M230.23,35.1a7.13,7.13,0,0,1-14.25,0V12.75h-7.3V35.1c0,6.71,4.87,13.79,14.39,13.84h.08c9.52,0,14.38-7.13,14.38-13.84V12.75h-7.3Z"/></g></g></svg>