<svg xmlns="http://www.w3.org/2000/svg" xmlns:xlink="http://www.w3.org/1999/xlink" viewBox="0 0 81.28 81"><defs><style>.cls-1{fill:#fff;}.cls-2{mask:url(#mask);}.cls-3{fill:#e7282b;}</style><mask id="mask" x="0" y="0" width="81.28" height="81" maskUnits="userSpaceOnUse"><g id="mask-2"><polygon id="path-1" class="cls-1" points="0 0 81.28 0 81.28 81 0 81 0 0"/></g></mask></defs><g id="Layer_2" data-name="Layer 2"><g id="Artwork"><g id="Group-3"><g class="cls-2"><path id="Fill-1" class="cls-3" d="M73.65,81h-66A7.64,7.64,0,0,1,0,73.39V7.6A7.64,7.64,0,0,1,7.63,0h66a7.64,7.64,0,0,1,7.63,7.6V73.39A7.64,7.64,0,0,1,73.65,81"/></g></g><path id="Fill-4" class="cls-1" d="M17.54,15.25h3.85a.47.47,0,0,1,.47.55L20.08,28.16a.79.79,0,0,0,.78.91h6.76a.32.32,0,0,1,.31.35L27.4,33a.37.37,0,0,1-.37.32H19.39c-2.27,0-4.45-1.86-4.13-4.1l1.8-13.53a.48.48,0,0,1,.48-.42"/><path id="Fill-6" class="cls-1" d="M30.38,20.19l-1.77,12.6a.34.34,0,0,0,.34.38h3.72a.53.53,0,0,0,.53-.45l1.74-12.41a.48.48,0,0,0-.47-.54H30.85a.48.48,0,0,0-.47.42"/><path id="Fill-8" class="cls-1" d="M38.06,32.21a3.59,3.59,0,0,0-2.36.72c.16-1.14,1.45-10,1.56-10.54a4.13,4.13,0,0,1,.75-2c.6-.57,1.53-.9,6.15-.91S49.79,22.8,49.54,25c-.21,1.88-.91,6.53-1.11,7.83a.4.4,0,0,1-.4.34H44.38a.43.43,0,0,1-.43-.5c.18-1.29.68-4.76.85-5.76.2-1.25.37-2.61,0-3.15s-1.33-1-3.25-.63l-1.41,10a3.65,3.65,0,0,0-2.12-.9"/><path id="Fill-10" class="cls-1" d="M53.49,14.54h4a.24.24,0,0,1,.25.28L55.26,33a.26.26,0,0,1-.27.24H51a.28.28,0,0,1-.27-.31l2.52-18.15a.24.24,0,0,1,.24-.21"/><path id="Fill-12" class="cls-1" d="M56.62,25.48l4.57-5.33a.74.74,0,0,1,.57-.27h4a.33.33,0,0,1,.25.56L61.35,25.6l4.27,9.15a.5.5,0,0,1-.46.72H61.54a.49.49,0,0,1-.44-.28Z"/><path id="Fill-14" class="cls-1" d="M35.72,16.36a3.08,3.08,0,0,1-2.86,2.4,2,2,0,0,1-2-2.49,3,3,0,0,1,2.94-2.49,2,2,0,0,1,1.89,2.58"/><path id="Fill-16" class="cls-1" d="M39.83,36.39A3.08,3.08,0,0,1,37,38.78a2,2,0,0,1-2-2.48,3,3,0,0,1,2.94-2.49,2,2,0,0,1,1.89,2.58"/><path id="Fill-18" class="cls-1" d="M59.38,52.8a3,3,0,0,1-2.89,2.37,2.1,2.1,0,0,1-2.2-2.46,3,3,0,0,1,3-2.45,2.11,2.11,0,0,1,2.11,2.54"/><path id="Fill-20" class="cls-1" d="M25,46H22.53a.13.13,0,0,1-.12-.17l2.13-5.39a.1.1,0,0,1,.2,0l.48,5.27A.24.24,0,0,1,25,46m5.93,6.77L28.18,36.52a1.48,1.48,0,0,0-1.47-1.23H24A2.13,2.13,0,0,0,22,36.53l-7.35,16.3a.36.36,0,0,0,.33.5l3.82,0a.66.66,0,0,0,.6-.4l1.27-3a.21.21,0,0,1,.2-.13h4.63a.22.22,0,0,1,.22.2L26,52.81a.64.64,0,0,0,.64.58h3.75a.51.51,0,0,0,.5-.58"/><path id="Fill-22" class="cls-1" d="M29.08,55.76,30,58.48c.16.44.28.54.59.48,1.11-.24,3.81-1,5.12-2.81,1.72-2.31,2-6.41,2.26-8.49.25-1.72.8-5.94,1-7.37a.43.43,0,0,0-.43-.49H35.07a.6.6,0,0,0-.6.52c-.28,2-1.27,9.32-1.45,10.33-.2,1.17-.24,2.86-2,3.87a9.39,9.39,0,0,1-1.66.76c-.17.09-.37.17-.29.48"/><path id="Fill-24" class="cls-1" d="M47.94,49.48s-1.79.61-2.64,0-.93-2-.43-3.85,1.75-2.21,2.28-2.24a6.64,6.64,0,0,1,1.55.22Zm5-9.19a17,17,0,0,0-6.22-.69c-2.88.21-6.14,1.53-6.75,7.2s2,6.76,5.73,6.93a13.7,13.7,0,0,0,5.84-1,1,1,0,0,0,.62-.8L53.49,41C53.54,40.53,53.32,40.4,52.89,40.29Z"/><path id="Fill-26" class="cls-1" d="M55.55,48.45l1-10.45c0-.38.35-.53.73-.53h3.47c.32,0,.46.25.37.65L59,48.58a.44.44,0,0,1-.43.35H56a.45.45,0,0,1-.44-.48"/><path id="Fill-28" class="cls-1" d="M15,67.72a3.1,3.1,0,0,0,2.25.3,211.29,211.29,0,0,1,24-4.7,240.37,240.37,0,0,1,31.1-2.57l0,0s-11.71-1.6-30.93.27S11.5,65.81,11.5,65.81Z"/></g></g></svg>