<svg xmlns="http://www.w3.org/2000/svg" viewBox="0 0 219.58 72"><defs><style>.cls-1{fill:#422f8d;fill-rule:evenodd;}</style></defs><g id="Layer_2" data-name="Layer 2"><g id="Artwork"><path class="cls-1" d="M74.42,2h28.25l0,11.33h-7l16.48,39.09,16.22-39.06h-7.15V2h22.6l0,6.46L116.65,72c-6.56,0-10.83-2.37-13.12-7.34L81.12,13.33h-6.7V2ZM35.57,0A35.82,35.82,0,1,1,0,35.81,35.69,35.69,0,0,1,35.57,0Zm-.11,11.72C23.07,11.72,13,22.62,13,36.08S23.07,60.44,35.46,60.44,57.89,49.53,57.89,36.08s-10-24.36-22.43-24.36ZM184,0a35.82,35.82,0,1,1-35.57,35.81A35.69,35.69,0,0,1,184,0Zm-.11,11.72c-12.39,0-22.44,10.9-22.44,24.36s10,24.36,22.44,24.36,22.43-10.91,22.43-24.36S196.29,11.72,183.9,11.72Z"/></g></g></svg>