<svg xmlns="http://www.w3.org/2000/svg" viewBox="0 0 185.02 81"><defs><style>.cls-1{fill:#ed4c2e;}.cls-1,.cls-2{fill-rule:evenodd;}.cls-2{fill:#fff;}</style></defs><g id="Layer_2" data-name="Layer 2"><g id="Artwork"><path class="cls-1" d="M57.72,0,2.44,7.39A3,3,0,0,0,0,10.61v52.5s.32,6.14,7.36,6.14H70s5.58-1.34,5.58-6.93V19s.11-6.14-7.26-6.14H7.91A3.84,3.84,0,0,1,5,10c-.18-1,.21-1.08,1.24-1.08H61.68V3S61.48-.26,57.72,0Z"/><path class="cls-2" d="M38.91,60.34c-4.58,0-8-1.87-12.93-6.79a2.26,2.26,0,0,1,3.18-3.22c5.24,5.19,7.67,6.48,11.86,5.34,2.43-.66,4.61-3.76,4.74-7.32.1-2.77-1.85-4.57-5.8-5.36-7.08-1.42-11.26-4.13-12.42-8.05-.94-3.17.29-6.7,3.36-9.69l.13-.11c6.6-5.52,14.27-1.41,17.4,1.54A2.26,2.26,0,1,1,45.34,30c-.27-.24-6.2-5.63-11.34-1.42-1.76,1.74-2.56,3.64-2.12,5.11.63,2.12,3.81,3.86,9,4.9,8.77,1.75,9.52,7.54,9.43,9.95-.19,5.25-4.58,11.13-8.7,11.65A21,21,0,0,1,38.91,60.34Z"/><path class="cls-1" d="M98.83,12.55a12.36,12.36,0,0,0-3.21-1.38c-2.33-.66-4-1.52-4.83-2.61s-.71-2.18.15-3.76a3.69,3.69,0,0,1,3.18-1.66,10.46,10.46,0,0,1,5.51,1.29,1,1,0,1,0,.92-1.84A12.79,12.79,0,0,0,94,1.07,5.75,5.75,0,0,0,89.1,3.8c-1.29,2.38-1.21,4.33,0,6,1.12,1.46,3.16,2.58,5.94,3.35a11.92,11.92,0,0,1,2.73,1.15,5,5,0,0,1,2.15,2.27,3.61,3.61,0,0,1,.14,2.47,5.29,5.29,0,0,1-.54,1.2c0,.06-.06.12-.12.2a4.37,4.37,0,0,1-3.81,1.87,12.82,12.82,0,0,1-6.37-2.15,10.4,10.4,0,0,1-1-.61,1,1,0,0,0-1.15,1.73,10.16,10.16,0,0,1,1,.69,14.78,14.78,0,0,0,7.43,2.43,6.35,6.35,0,0,0,5.54-2.75,2.86,2.86,0,0,1,.17-.29,7.14,7.14,0,0,0,.78-1.72,5.62,5.62,0,0,0-.23-3.85A7.19,7.19,0,0,0,98.83,12.55Z"/><path class="cls-1" d="M114.64,10.28a6.55,6.55,0,0,0-3.55.12,9.52,9.52,0,0,0-3.56,2V2.05a1,1,0,0,0-2.07,0V23.37a1,1,0,0,0,2.07,0v-8l0-.06a9,9,0,0,1,4.11-3,4.45,4.45,0,0,1,2.44-.09,3,3,0,0,1,1.63,1.12,4,4,0,0,1,.64,2.33v7.63a1,1,0,0,0,2.06,0V15.71a5.86,5.86,0,0,0-1-3.5A5,5,0,0,0,114.64,10.28Z"/><path class="cls-1" d="M132.21,20.84a5.18,5.18,0,0,1-3.62,1.5,5.1,5.1,0,1,1,3.62-1.5Zm-3.62-10.76a7.15,7.15,0,1,0,5,12.2,7.15,7.15,0,0,0-5-12.2Z"/><path class="cls-1" d="M149.6,20.84a5.11,5.11,0,0,1-7.23,0,5.13,5.13,0,0,1,0-7.23A5.17,5.17,0,0,1,146,12.12a5.11,5.11,0,0,1,3.61,8.72ZM146,10.08a7.12,7.12,0,0,0-5,2.1,1.66,1.66,0,0,0-.23.23v-1.3a1,1,0,1,0-2.06,0V31.44a1,1,0,1,0,2.06,0V22.05a1.25,1.25,0,0,1,.23.23,7.15,7.15,0,1,0,5-12.2Z"/><path class="cls-1" d="M158.41,15.65a5.33,5.33,0,0,1,1.35-2.21,4.37,4.37,0,0,1,6.2,0,6.1,6.1,0,0,1,1.38,2.21Zm9-3.67a6.29,6.29,0,0,0-4.54-1.9,6.1,6.1,0,0,0-4.53,1.9c-2.47,2.67-2.44,5.54-1.47,8.43a5.64,5.64,0,0,0,2.41,3,6.68,6.68,0,0,0,3.82,1,13,13,0,0,0,4.77-1.09,1,1,0,0,0-.81-1.89,10.52,10.52,0,0,1-4,.95,4.91,4.91,0,0,1-2.69-.69,4.35,4.35,0,0,1-1.61-2,8.86,8.86,0,0,1-.46-1.89h9.5c.52,0,2.21.11,1.32-2.79A6.94,6.94,0,0,0,167.4,12Z"/><path class="cls-1" d="M174.08,15.65a5.33,5.33,0,0,1,1.35-2.21,4.37,4.37,0,0,1,6.2,0A6,6,0,0,1,183,15.65ZM185,16.72V16a6.38,6.38,0,0,0-.23-1,6.94,6.94,0,0,0-1.72-3,6.29,6.29,0,0,0-4.54-1.9A6.1,6.1,0,0,0,174,12c-2.47,2.67-2.44,5.54-1.47,8.43a5.66,5.66,0,0,0,2.42,3,6.62,6.62,0,0,0,3.81,1,13,13,0,0,0,4.77-1.09,1,1,0,0,0-.81-1.89,10.52,10.52,0,0,1-4,.95,4.91,4.91,0,0,1-2.69-.69,4.35,4.35,0,0,1-1.61-2,9.51,9.51,0,0,1-.46-1.89h9.5C183.85,17.75,184.84,17.81,185,16.72Z"/><path class="cls-1" d="M104.14,51H93.42V35.44h9.68a4,4,0,0,1,.49,0c1.48.16,7.92,1.28,7.92,8.18,0,7.37-7.37,7.37-7.37,7.37ZM102.25,29.5H87.39V69.25h6V57.38h9.48A17.74,17.74,0,0,0,112,55a12.44,12.44,0,0,0,6.5-11.18,13.18,13.18,0,0,0-5.89-11.15A17.8,17.8,0,0,0,102.25,29.5Z"/><path class="cls-1" d="M133.41,63.78a8.95,8.95,0,1,1,8.94-9v0a8.94,8.94,0,0,1-8.94,8.94ZM142.35,41v2.79a14.09,14.09,0,0,0-8.94-3.18,14.22,14.22,0,0,0,0,28.44,14.09,14.09,0,0,0,8.94-3.18v3.18h6V41Z"/><polygon class="cls-1" points="151.09 40.61 159.16 40.61 168.62 58.72 177.75 40.61 185.02 40.61 185.02 40.66 163.35 81 156.25 81 164.52 66.01 151.09 40.61"/></g></g></svg>