<svg width="1700" height="427" viewBox="0 0 1700 427" fill="none" xmlns="http://www.w3.org/2000/svg">
<g clip-path="url(#clip0_7:9)">
<path d="M50.0984 176.259L121.839 52L193.58 176.259H50.0984Z" stroke="#1A31F1" stroke-width="27"/>
<rect x="256.864" y="38.5" width="137.759" height="137.759" stroke="#17E264" stroke-width="27"/>
<circle cx="325.451" cy="308.07" r="74.4299" stroke="white" stroke-width="27"/>
<line x1="200.911" y1="229.686" x2="43.7475" y2="386.85" stroke="#FF0000" stroke-width="27"/>
<line y1="-13.5" x2="222.263" y2="-13.5" transform="matrix(0.707107 0.707107 0.707107 -0.707107 51.7292 220.14)" stroke="#FF0000" stroke-width="27"/>
<path d="M491.88 174H525.9V54.72H572.94V27H444.84V54.72H491.88V174ZM659.334 176.52C705.534 176.52 739.764 144.39 739.764 100.5C739.764 56.61 705.534 24.48 659.334 24.48C612.924 24.48 578.904 56.82 578.904 100.5C578.904 144.18 612.924 176.52 659.334 176.52ZM659.334 147.54C633.084 147.54 613.344 128.43 613.344 100.5C613.344 72.57 633.084 53.46 659.334 53.46C685.584 53.46 705.324 72.57 705.324 100.5C705.324 128.43 685.584 147.54 659.334 147.54ZM827.911 27H764.281V174H798.301V133.47H827.911C867.181 133.47 891.751 113.1 891.751 80.34C891.751 47.37 867.181 27 827.911 27ZM826.021 105.75H798.301V54.72H826.021C846.811 54.72 857.311 64.17 857.311 80.34C857.311 96.3 846.811 105.75 826.021 105.75ZM979.684 176.52C1021.47 176.52 1046.25 152.58 1046.25 109.32V27H1012.65V108.06C1012.65 135.99 1000.68 147.54 979.894 147.54C959.314 147.54 947.134 135.99 947.134 108.06V27H913.114V109.32C913.114 152.58 937.894 176.52 979.684 176.52ZM1142.45 27H1078.82V174H1112.84V133.47H1142.45C1181.72 133.47 1206.29 113.1 1206.29 80.34C1206.29 47.37 1181.72 27 1142.45 27ZM1140.56 105.75H1112.84V54.72H1140.56C1161.35 54.72 1171.85 64.17 1171.85 80.34C1171.85 96.3 1161.35 105.75 1140.56 105.75Z" fill="white"/>
<path d="M575.216 359.184C565.54 364.376 555.864 366.264 545.48 366.264C513.856 366.264 491.908 344.316 491.908 313.4C491.908 282.012 513.856 260.536 545.952 260.536C562.708 260.536 576.632 266.436 588.668 279.18L613.212 256.524C597.164 237.88 573.092 227.968 544.064 227.968C491.436 227.968 453.204 263.604 453.204 313.4C453.204 363.196 491.436 398.832 543.356 398.832C566.956 398.832 591.972 391.516 610.144 377.828V310.804H575.216V359.184ZM767.906 396H808.026L734.158 230.8H696.398L622.766 396H661.942L676.574 360.6H753.274L767.906 396ZM688.846 331.572L715.042 268.324L741.238 331.572H688.846ZM1010.19 396L1009.72 230.8H978.33L917.442 333.46L855.61 230.8H823.986V396H859.858V299.004L908.238 378.536H925.466L974.082 296.88L974.318 396H1010.19ZM1086.2 365.32V327.088H1162.9V297.352H1086.2V261.48H1173.05V230.8H1048.2V396H1176.12V365.32H1086.2ZM1259.64 398.832C1306.84 398.832 1329.73 375.232 1329.73 347.62C1329.73 286.968 1233.68 307.972 1233.68 277.528C1233.68 267.144 1242.41 258.648 1265.06 258.648C1279.7 258.648 1295.51 262.896 1310.85 271.628L1322.65 242.6C1307.31 232.924 1286.07 227.968 1265.3 227.968C1218.34 227.968 1195.68 251.332 1195.68 279.416C1195.68 340.776 1291.73 319.536 1291.73 350.452C1291.73 360.6 1282.53 368.152 1259.87 368.152C1240.05 368.152 1219.28 361.072 1205.36 350.924L1192.38 379.716C1207.01 391.044 1233.44 398.832 1259.64 398.832ZM1467.72 396H1512.32L1439.87 304.432L1508.31 230.8H1465.83L1392.67 307.972V230.8H1354.67V396H1392.67V354.228L1414.85 331.1L1467.72 396ZM1599.28 398.832C1646.24 398.832 1674.09 371.928 1674.09 323.312V230.8H1636.33V321.896C1636.33 353.284 1622.88 366.264 1599.52 366.264C1576.39 366.264 1562.7 353.284 1562.7 321.896V230.8H1524.47V323.312C1524.47 371.928 1552.32 398.832 1599.28 398.832Z" fill="#17E264"/>
</g>
<defs>
<clipPath id="clip0_7:9">
<rect width="1700" height="427" fill="white"/>
</clipPath>
</defs>
</svg>
