<svg xmlns="http://www.w3.org/2000/svg" xmlns:xlink="http://www.w3.org/1999/xlink" viewBox="0 0 1445.7 1446.44"><defs><style>.cls-1,.cls-5{fill-rule:evenodd;}.cls-1{fill:url(#linear-gradient);}.cls-2,.cls-5{fill:#fff;}.cls-3{fill:url(#linear-gradient-2);}.cls-4{fill:url(#linear-gradient-3);}</style><linearGradient id="linear-gradient" x1="722.85" y1="1462.38" x2="722.85" y2="79.83" gradientUnits="userSpaceOnUse"><stop offset="0" stop-color="#20b038"/><stop offset="1" stop-color="#60d66a"/></linearGradient><linearGradient id="linear-gradient-2" x1="722.85" y1="1144.28" x2="722.85" y2="302.17" xlink:href="#linear-gradient"/><linearGradient id="linear-gradient-3" x1="722.85" y1="1159.37" x2="722.85" y2="287.06" gradientUnits="userSpaceOnUse"><stop offset="0" stop-color="#f9f9f9"/><stop offset="1" stop-color="#fff"/></linearGradient></defs><g id="Layer_2" data-name="Layer 2"><g id="Layer_1-2" data-name="Layer 1"><path class="cls-1" d="M318.29,0h809.14C1303,0,1445.7,143.49,1445.7,318.28v809.15c0,175.52-142.74,319-318.27,319H318.29C142.74,1446.44,0,1303,0,1127.43V318.28C0,143.49,142.74,0,318.29,0Z"/><path class="cls-2" d="M288.64,1159.37l61.34-224a431.49,431.49,0,0,1-57.71-216.1c.1-238.33,194.06-432.23,432.4-432.23,115.66.05,224.22,45.07,305.86,126.77s126.57,190.31,126.53,305.81C1157,958,963,1151.89,724.67,1151.89h-.19a432.12,432.12,0,0,1-206.62-52.62ZM528.48,1021l13.13,7.78a359,359,0,0,0,182.92,50.09h.14c198.08,0,359.29-161.18,359.38-359.28A359.4,359.4,0,0,0,724.8,360.07c-198.24,0-359.45,161.16-359.53,359.25a358.4,358.4,0,0,0,55,191.2l8.55,13.59-36.31,132.57Z"/><path class="cls-3" d="M303.68,1144.28,362.9,928.05a416.52,416.52,0,0,1-55.73-208.62c.1-230.08,187.35-417.26,417.42-417.26,111.67.05,216.47,43.51,295.27,122.38S1142.06,608.26,1142,719.76C1141.92,949.84,954.65,1137,724.61,1137h-.19A417.36,417.36,0,0,1,525,1086.26Z"/><path class="cls-4" d="M288.64,1159.37l61.34-224a431.49,431.49,0,0,1-57.71-216.1c.1-238.33,194.06-432.23,432.4-432.23,115.66.05,224.22,45.07,305.86,126.77s126.57,190.31,126.53,305.81C1157,958,963,1151.89,724.67,1151.89h-.19a432.12,432.12,0,0,1-206.62-52.62ZM528.48,1021l13.13,7.78a359,359,0,0,0,182.92,50.09h.14c198.08,0,359.29-161.18,359.38-359.28A359.4,359.4,0,0,0,724.8,360.07c-198.24,0-359.45,161.16-359.53,359.25a358.4,358.4,0,0,0,55,191.2l8.55,13.59-36.31,132.57Z"/><path class="cls-5" d="M616.6,538.6c-8.1-18-16.62-18.36-24.31-18.67-6.3-.27-13.51-.26-20.71-.26s-18.91,2.71-28.81,13.52S505,570.14,505,623.29,543.67,727.82,549.07,735,623.81,854.8,733.63,898.11c91.26,36,109.83,28.83,129.64,27S927.19,899,936.2,873.78s9-46.85,6.3-51.37-9.91-7.2-20.71-12.6S857.87,778.26,848,774.66s-17.1-5.4-24.31,5.42-27.89,35.13-34.2,42.33-12.6,8.12-23.41,2.72-45.6-16.81-86.88-53.62c-32.12-28.63-53.8-64-60.1-74.82s-.68-16.65,4.74-22c4.85-4.84,10.81-12.61,16.21-18.92s7.19-10.81,10.79-18,1.8-13.53-.9-18.93S626.2,560,616.6,538.6Z"/></g></g></svg>