<svg xmlns="http://www.w3.org/2000/svg" viewBox="0 0 277.81 81"><defs><style>.cls-1{fill:#3b88c8;}.cls-1,.cls-2,.cls-3{fill-rule:evenodd;}.cls-2{fill:#fff;}.cls-3{fill:#7abbe7;}</style></defs><g id="Layer_2" data-name="Layer 2"><g id="Artwork"><path class="cls-1" d="M36.63.15A39.54,39.54,0,0,0,5.79,19.45,41.08,41.08,0,0,0,.11,43.64c1.52,21.16,19.7,39.07,43,37.23C64,79.21,81.2,60.43,79.43,37.33a40.37,40.37,0,0,0-8.3-21.73c-2.13-2.85-2.55-2.89-4.78-5.23C63.59,7.48,57.74,4.15,54,2.68A39.12,39.12,0,0,0,36.63.15Z"/><path class="cls-1" d="M103.25,52.21a50.91,50.91,0,0,0,7,0c10.4-.95,14.08-15.17,5.33-21.13a11.08,11.08,0,0,0-5.18-2,55.12,55.12,0,0,0-7.15,0ZM109.84,61c5.28.38,11.43-3.72,13.6-6.07,7.53-8.15,7.72-19.94.13-28.47-2.82-3.18-9.43-6.69-13.64-6.2H94.7V61Z"/><path class="cls-2" d="M16.74,28.7c-.51,1.46-.2,17.77-.2,20.79,0,3.27-.65,4.3,4.47,6,13.55,4.64,27-11.07,40.44-3.3.63.36,1.39,1.1,1.57-.09v-21c0-2.25.2-3-1.29-4-12.06-8.4-25.12,6-37.35,4.36C19.85,30.92,18,28.61,16.74,28.7Z"/><path class="cls-1" d="M251.85,43.51h17.23c0-3.76.45-7.42-1.24-10.3A8.58,8.58,0,0,0,260.51,29a8.46,8.46,0,0,0-7.39,4.19C251.42,36,251.8,39.84,251.85,43.51ZM243.19,61.1h8.66V52.33H269l0,8.76h8.65c0-4.87,0-9.7,0-14.53,0-4.36.36-9.81-.71-13.76A17.18,17.18,0,0,0,244,32.63c-1.16,3.9-.77,9.49-.77,13.78C243.18,51.3,243.13,56.22,243.19,61.1Z"/><path class="cls-1" d="M152.77,43.51H170c0-3.71.44-7.43-1.25-10.31a8.52,8.52,0,0,0-14.72,0C152.34,35.93,152.71,39.9,152.77,43.51Zm-8.64,17.58h8.63c0-1.83-.23-7.44.09-8.77H170L170,61.1h8.64c0-4.85,0-9.7,0-14.53,0-4.15.39-10.09-.7-13.76a17.18,17.18,0,0,0-33.08-.17c-1.15,3.78-.76,9.56-.76,13.77C144.12,51.27,144,56.25,144.13,61.09Z"/><path class="cls-1" d="M193.86,36.18l-.12,6.07c0,5.1-.25,14.6,0,18.74h8.46c.2-2.9-.3-23.57.23-24.23,0-4,4.19-7.76,8.43-7.77a8.47,8.47,0,0,1,5.88,2.3,8.24,8.24,0,0,1,2.7,5.49c.39.22.08,21.79.21,24.2h8.47l-.07-24.69c.21-1.93-.95-4.92-1.7-6.44a17.13,17.13,0,0,0-30.72-.22C194.89,31.13,193.68,34.2,193.86,36.18Z"/><path class="cls-3" d="M109.84,61,94.7,61V20.3h15.23c-.28-.39-6.63-.16-7.52-.16-2.22,0-5.71-.21-7.77,0-.2.65-.28,39.9,0,41,1.4.18,11.17,0,14.26.05l.85-.09Z"/><path class="cls-3" d="M219.46,36.78c.09,3.33-.18,23.16.13,24.34l8.63,0c.22-.95.08-16.41.08-18.75,0-1.12.3-5.52-.23-6.11L228.14,61h-8.47C219.54,58.57,219.85,37,219.46,36.78Z"/><path class="cls-3" d="M202.45,36.76c-.53.66,0,21.33-.23,24.23h-8.46c-.27-4.14,0-13.64,0-18.74l.12-6.07c-.48.21-.27,11-.27,12.39,0,2-.23,11.43.11,12.56l8.62,0Z"/></g></g></svg>