<svg width="1083" height="527" viewBox="0 0 1083 527" fill="none" xmlns="http://www.w3.org/2000/svg">
<rect x="18.5" y="18.5" width="1046" height="490" rx="56.5" stroke="url(#paint0_linear)" stroke-width="37"/>
<path d="M177.102 200.316H139.098V318H123.676V200.316H85.7637V186.363H177.102V200.316ZM277.953 318H208.188V186.363H275.016V200.316H223.61V244.104H271.16V257.965H223.61V304.047H277.953V318ZM407.996 318H389.637L367.606 281.098C365.586 277.671 363.628 274.764 361.731 272.377C359.834 269.929 357.875 267.94 355.856 266.41C353.897 264.88 351.756 263.779 349.43 263.105C347.166 262.371 344.595 262.004 341.719 262.004H329.051V318H313.629V186.363H352.918C358.671 186.363 363.964 187.098 368.799 188.566C373.695 189.974 377.918 192.146 381.467 195.084C385.078 198.021 387.893 201.693 389.912 206.1C391.932 210.445 392.942 215.555 392.942 221.43C392.942 226.02 392.238 230.242 390.83 234.098C389.484 237.892 387.526 241.288 384.955 244.287C382.446 247.286 379.386 249.856 375.776 251.998C372.226 254.079 368.218 255.701 363.75 256.863V257.23C365.953 258.21 367.851 259.342 369.442 260.627C371.094 261.851 372.655 263.32 374.123 265.033C375.592 266.747 377.03 268.705 378.438 270.908C379.907 273.05 381.528 275.559 383.303 278.436L407.996 318ZM329.051 200.316V248.051H349.981C353.836 248.051 357.386 247.469 360.629 246.307C363.934 245.144 366.78 243.492 369.166 241.35C371.553 239.146 373.42 236.484 374.766 233.363C376.112 230.181 376.785 226.632 376.785 222.715C376.785 215.677 374.491 210.2 369.901 206.283C365.372 202.305 358.793 200.316 350.164 200.316H329.051ZM436.512 318V186.363H473.965C485.348 186.363 494.375 189.148 501.045 194.717C507.716 200.286 511.051 207.538 511.051 216.473C511.051 223.939 509.032 230.426 504.993 235.934C500.954 241.441 495.385 245.358 488.286 247.684V248.051C497.159 249.091 504.258 252.457 509.582 258.148C514.907 263.779 517.569 271.122 517.569 280.18C517.569 291.44 513.53 300.559 505.452 307.535C497.374 314.512 487.184 318 474.883 318H436.512ZM451.934 200.316V242.818H467.723C476.168 242.818 482.808 240.799 487.643 236.76C492.478 232.66 494.895 226.907 494.895 219.502C494.895 206.712 486.48 200.316 469.651 200.316H451.934ZM451.934 256.68V304.047H472.864C481.921 304.047 488.928 301.905 493.885 297.621C498.903 293.337 501.413 287.462 501.413 279.996C501.413 264.452 490.825 256.68 469.651 256.68H451.934ZM656.516 318H639.442L625.489 281.098H569.676L556.549 318H539.383L589.872 186.363H605.844L656.516 318ZM620.44 267.236L599.786 211.148C599.113 209.312 598.439 206.375 597.766 202.336H597.399C596.787 206.069 596.083 209.007 595.288 211.148L574.817 267.236H620.44ZM759.02 186.363L715.6 269.348V318H700.179V269.715L657.86 186.363H675.393L704.86 245.848C705.227 246.582 706.298 249.275 708.073 253.926H708.348C708.96 251.845 710.123 249.152 711.837 245.848L742.68 186.363H759.02ZM874.927 318H857.852L843.899 281.098H788.087L774.96 318H757.794L808.282 186.363H824.255L874.927 318ZM838.851 267.236L818.196 211.148C817.523 209.312 816.85 206.375 816.177 202.336H815.81C815.198 206.069 814.494 209.007 813.698 211.148L793.227 267.236H838.851ZM999.095 318H980.735L958.704 281.098C956.685 277.671 954.726 274.764 952.829 272.377C950.932 269.929 948.974 267.94 946.954 266.41C944.996 264.88 942.854 263.779 940.528 263.105C938.264 262.371 935.694 262.004 932.818 262.004H920.15V318H904.728V186.363H944.017C949.769 186.363 955.063 187.098 959.898 188.566C964.793 189.974 969.016 192.146 972.566 195.084C976.176 198.021 978.991 201.693 981.011 206.1C983.03 210.445 984.04 215.555 984.04 221.43C984.04 226.02 983.336 230.242 981.929 234.098C980.582 237.892 978.624 241.288 976.054 244.287C973.545 247.286 970.485 249.856 966.874 251.998C963.325 254.079 959.316 255.701 954.849 256.863V257.23C957.052 258.21 958.949 259.342 960.54 260.627C962.193 261.851 963.753 263.32 965.222 265.033C966.691 266.747 968.129 268.705 969.536 270.908C971.005 273.05 972.627 275.559 974.401 278.436L999.095 318ZM920.15 200.316V248.051H941.079C944.935 248.051 948.484 247.469 951.728 246.307C955.032 245.144 957.878 243.492 960.265 241.35C962.651 239.146 964.518 236.484 965.864 233.363C967.211 230.181 967.884 226.632 967.884 222.715C967.884 215.677 965.589 210.2 960.999 206.283C956.47 202.305 949.892 200.316 941.263 200.316H920.15Z" fill="url(#paint1_linear)"/>
<defs>
<linearGradient id="paint0_linear" x1="14" y1="510.5" x2="1083" y2="25.5" gradientUnits="userSpaceOnUse">
<stop stop-color="#77D970"/>
<stop offset="0.655005" stop-color="#85FF7C"/>
</linearGradient>
<linearGradient id="paint1_linear" x1="142.5" y1="342" x2="1032" y2="115" gradientUnits="userSpaceOnUse">
<stop stop-color="#D8DC71"/>
<stop offset="0.859375" stop-color="#85FF7C" stop-opacity="0.65"/>
</linearGradient>
</defs>
</svg>
