<svg width="4075" height="514" viewBox="0 0 4075 514" fill="none" xmlns="http://www.w3.org/2000/svg">
<g clip-path="url(#clip0)">
<path d="M49.8723 216.532L113.688 106L177.504 216.532H49.8723Z" stroke="#17E264" stroke-width="40"/>
<rect x="259.471" y="86" width="130.532" height="130.532" stroke="#F43B86" stroke-width="40"/>
<circle cx="324.435" cy="358.989" r="71.011" stroke="#FF0000" stroke-width="40"/>
<line x1="199.793" y1="282.12" x2="37.1217" y2="444.791" stroke="#290FBA" stroke-width="40"/>
<line y1="-20" x2="230.051" y2="-20" transform="matrix(0.707107 0.707107 0.707107 -0.707107 41.1213 267.978)" stroke="#290FBA" stroke-width="40"/>
<g filter="url(#filter0_d)">
<path d="M765.76 152.571V84.342H505.156V152.571H596.983V426H673.933V152.571H765.76ZM1054.82 183.864C1054.82 132.051 1018.91 79.212 922.461 79.212C826.017 79.212 790.107 132.051 790.107 183.864V326.478C790.107 378.291 826.017 431.13 922.461 431.13C1018.91 431.13 1054.82 378.291 1054.82 326.478V183.864ZM977.865 319.809C977.865 346.485 960.936 362.901 922.461 362.901C883.986 362.901 867.057 346.485 867.057 319.809V190.533C867.057 163.857 883.986 147.441 922.461 147.441C960.936 147.441 977.865 163.857 977.865 190.533V319.809ZM1364.78 225.93V181.299C1364.78 117.174 1334 84.342 1250.89 84.342H1111.35V426H1188.3V322.374H1246.79C1329.89 322.374 1364.78 290.055 1364.78 225.93ZM1287.83 218.235C1287.83 242.859 1280.64 255.684 1246.79 255.684H1188.3V152.571H1246.79C1279.1 152.571 1287.83 163.857 1287.83 188.481V218.235ZM1586.38 84.342V319.296C1586.38 346.998 1573.05 362.901 1534.57 362.901C1496.1 362.901 1482.76 346.998 1482.76 319.296V84.342H1405.81V326.478C1405.81 378.291 1438.13 431.13 1534.57 431.13C1631.01 431.13 1663.33 378.291 1663.33 326.478V84.342H1586.38ZM1978.35 225.93V181.299C1978.35 117.174 1947.57 84.342 1864.47 84.342H1724.93V426H1801.88V322.374H1860.36C1943.47 322.374 1978.35 290.055 1978.35 225.93ZM1901.4 218.235C1901.4 242.859 1894.22 255.684 1860.36 255.684H1801.88V152.571H1860.36C1892.68 152.571 1901.4 163.857 1901.4 188.481V218.235ZM2362.56 414.714V254.145H2290.23V358.797C2270.22 361.362 2259.96 361.875 2244.57 361.875C2206.1 361.875 2196.35 339.816 2196.35 313.14V195.663C2196.35 168.987 2206.1 148.98 2244.57 148.98C2269.19 148.98 2314.85 152.571 2344.61 157.188L2353.84 89.985C2324.6 84.342 2284.07 79.212 2244.57 79.212C2161.46 79.212 2119.4 120.765 2119.4 183.864V326.478C2119.4 388.551 2161.46 431.13 2244.57 431.13C2284.07 431.13 2325.11 425.487 2362.56 414.714ZM2605.14 84.342H2502.54L2398.4 426H2478.43L2496.9 359.31H2611.3L2629.77 426H2709.79L2605.14 84.342ZM2553.84 152.058L2592.83 295.185H2514.34L2553.84 152.058ZM2879.57 381.882H2948.31L3007.82 236.19L3012.95 426H3087.34L3072.97 84.342H2996.02L2913.94 301.854L2831.86 84.342H2754.91L2740.55 426H2814.93L2820.06 236.19L2879.57 381.882ZM3361.35 426V357.771H3223.35V283.386H3350.57V215.157H3223.35V152.571H3361.35V84.342H3146.4V426H3361.35ZM3417.87 426H3494.82V84.342H3417.87V426ZM3604.09 426H3690.79L3587.67 251.58L3683.6 84.342H3596.91L3504.57 251.58L3604.09 426ZM3909.93 84.342V319.296C3909.93 346.998 3896.59 362.901 3858.12 362.901C3819.64 362.901 3806.31 346.998 3806.31 319.296V84.342H3729.36V326.478C3729.36 378.291 3761.68 431.13 3858.12 431.13C3954.56 431.13 3986.88 378.291 3986.88 326.478V84.342H3909.93Z" fill="url(#paint0_linear)" fill-opacity="0.52" shape-rendering="crispEdges"/>
</g>
</g>
<defs>
<filter id="filter0_d" x="501.156" y="79.212" width="3489.73" height="359.918" filterUnits="userSpaceOnUse" color-interpolation-filters="sRGB">
<feFlood flood-opacity="0" result="BackgroundImageFix"/>
<feColorMatrix in="SourceAlpha" type="matrix" values="0 0 0 0 0 0 0 0 0 0 0 0 0 0 0 0 0 0 127 0" result="hardAlpha"/>
<feOffset dy="4"/>
<feGaussianBlur stdDeviation="2"/>
<feComposite in2="hardAlpha" operator="out"/>
<feColorMatrix type="matrix" values="0 0 0 0 0 0 0 0 0 0 0 0 0 0 0 0 0 0 0.25 0"/>
<feBlend mode="normal" in2="BackgroundImageFix" result="effect1_dropShadow"/>
<feBlend mode="normal" in="SourceGraphic" in2="effect1_dropShadow" result="shape"/>
</filter>
<linearGradient id="paint0_linear" x1="446" y1="504" x2="4184" y2="-0.000230848" gradientUnits="userSpaceOnUse">
<stop stop-color="#17E264"/>
<stop offset="0.555262" stop-color="#8695FF"/>
</linearGradient>
<clipPath id="clip0">
<rect width="4075" height="514" fill="white"/>
</clipPath>
</defs>
</svg>
